<svg xmlns="http://www.w3.org/2000/svg" width="64" height="64"><path d="M32.008.363l-1.487.744L2.842 12.724l-2.475.988v2.476c0 13.103 5.267 24.689 11.617 33.12 3.171 4.214 6.548 7.662 9.886 10.13 3.337 2.475 6.532 4.199 10.13 4.199 3.598 0 6.801-1.732 10.13-4.2 3.338-2.475 6.715-5.923 9.886-10.13 6.35-8.422 11.617-20.008 11.617-33.12v-2.475l-2.475-.988-27.68-11.617-1.486-.744zm0 8.652V55.72c-.356 0-2.594-.546-5.188-2.476s-5.646-4.99-8.406-8.651c-5.077-6.73-8.992-16.014-9.64-25.947l23.234-9.64z"/><path d="M43.018 18.083l-3.17 3.034-12.261 12.26-3.444-3.443-3.17-3.033-6.199 6.199 3.034 3.17 6.613 6.613 3.17 3.034 3.17-3.034 15.431-15.43 3.034-3.17-6.2-6.2z" fill="green"/></svg>